<svg width="512" height="126" viewBox="0 0 512 126" fill="none" xmlns="http://www.w3.org/2000/svg">
<path d="M0.590088 92.7824L16.849 64.6211H49.3669L65.6258 92.7824L49.3669 120.944H16.849L0.590088 92.7824Z" fill="white"/>
<path d="M0.590088 33.1042L16.849 4.94292L49.3669 4.94292L65.6258 33.1042L49.3669 61.2655L16.849 61.2655L0.590088 33.1042Z" fill="white"/>
<path d="M51.8647 62.9436L68.1237 34.7823L100.642 34.7823L116.9 62.9436L100.642 91.1049H68.1237L51.8647 62.9436Z" fill="white"/>
<path d="M153.161 41.5029V49.6904H159.474V54.1592H153.161V75.1279C153.161 76.4821 153.442 77.5029 154.005 78.1904C154.567 78.8571 155.526 79.1904 156.88 79.1904C157.546 79.1904 158.463 79.0654 159.63 78.8154V83.5029C158.109 83.9196 156.63 84.1279 155.192 84.1279C152.609 84.1279 150.661 83.3467 149.349 81.7842C148.036 80.2217 147.38 78.0029 147.38 75.1279V54.1592H141.224V49.6904H147.38V41.5029H153.161ZM184.286 84.1279C179.703 84.1279 175.974 82.6279 173.099 79.6279C170.224 76.6071 168.786 72.5758 168.786 67.5342V66.4717C168.786 63.1175 169.421 60.1279 170.692 57.5029C171.984 54.8571 173.776 52.7946 176.067 51.3154C178.38 49.8154 180.88 49.0654 183.567 49.0654C187.963 49.0654 191.38 50.5133 193.817 53.4092C196.255 56.305 197.474 60.4508 197.474 65.8467V68.2529H174.567C174.651 71.5863 175.619 74.2842 177.474 76.3467C179.349 78.3883 181.724 79.4092 184.599 79.4092C186.64 79.4092 188.369 78.9925 189.786 78.1592C191.203 77.3258 192.442 76.2217 193.505 74.8467L197.036 77.5967C194.203 81.9508 189.953 84.1279 184.286 84.1279ZM183.567 53.8154C181.234 53.8154 179.276 54.6696 177.692 56.3779C176.109 58.0654 175.13 60.4404 174.755 63.5029H191.692V63.0654C191.526 60.1279 190.734 57.8571 189.317 56.2529C187.901 54.6279 185.984 53.8154 183.567 53.8154ZM224.536 54.8779C223.661 54.7321 222.713 54.6592 221.692 54.6592C217.901 54.6592 215.328 56.2738 213.974 59.5029V83.5029H208.192V49.6904H213.817L213.911 53.5967C215.807 50.5758 218.494 49.0654 221.974 49.0654C223.099 49.0654 223.953 49.2113 224.536 49.5029V54.8779ZM250.224 54.8779C249.349 54.7321 248.401 54.6592 247.38 54.6592C243.588 54.6592 241.015 56.2738 239.661 59.5029V83.5029H233.88V49.6904H239.505L239.599 53.5967C241.494 50.5758 244.182 49.0654 247.661 49.0654C248.786 49.0654 249.64 49.2113 250.224 49.5029V54.8779ZM279.192 83.5029C278.859 82.8363 278.588 81.6488 278.38 79.9404C275.692 82.7321 272.484 84.1279 268.755 84.1279C265.421 84.1279 262.682 83.1904 260.536 81.3154C258.411 79.4196 257.349 77.0238 257.349 74.1279C257.349 70.6071 258.682 67.8779 261.349 65.9404C264.036 63.9821 267.807 63.0029 272.661 63.0029H278.286V60.3467C278.286 58.3258 277.682 56.7217 276.474 55.5342C275.265 54.3258 273.484 53.7217 271.13 53.7217C269.067 53.7217 267.338 54.2425 265.942 55.2842C264.546 56.3258 263.849 57.5863 263.849 59.0654H258.036C258.036 57.3779 258.63 55.7529 259.817 54.1904C261.026 52.6071 262.651 51.3571 264.692 50.4404C266.755 49.5238 269.015 49.0654 271.474 49.0654C275.369 49.0654 278.421 50.0446 280.63 52.0029C282.838 53.9404 283.984 56.6175 284.067 60.0342V75.5967C284.067 78.7008 284.463 81.1696 285.255 83.0029V83.5029H279.192ZM269.599 79.0967C271.411 79.0967 273.13 78.6279 274.755 77.6904C276.38 76.7529 277.557 75.5342 278.286 74.0342V67.0967H273.755C266.671 67.0967 263.13 69.1696 263.13 73.3154C263.13 75.1279 263.734 76.5446 264.942 77.5654C266.151 78.5863 267.703 79.0967 269.599 79.0967Z" fill="white"/>
<path d="M317.484 81.8818C320.547 81.8818 323.068 81.0693 325.047 79.4443C327.047 77.8193 328.141 75.5693 328.328 72.6943H330.016C329.849 75.9652 328.588 78.6006 326.234 80.6006C323.88 82.5798 320.963 83.5693 317.484 83.5693C313.255 83.5693 309.891 82.0381 307.391 78.9756C304.911 75.9131 303.672 71.7568 303.672 66.5068V65.3818C303.672 60.2568 304.911 56.1631 307.391 53.1006C309.891 50.0381 313.234 48.5068 317.422 48.5068C321.005 48.5068 323.963 49.5798 326.297 51.7256C328.63 53.8714 329.87 56.7256 330.016 60.2881H328.328C328.182 57.2464 327.109 54.8089 325.109 52.9756C323.13 51.1214 320.568 50.1943 317.422 50.1943C313.651 50.1943 310.693 51.5589 308.547 54.2881C306.422 56.9964 305.359 60.7673 305.359 65.6006V66.6943C305.359 71.4235 306.432 75.1423 308.578 77.8506C310.745 80.5381 313.713 81.8818 317.484 81.8818ZM344.203 57.0068C345.307 54.3818 346.932 52.3089 349.078 50.7881C351.224 49.2673 353.599 48.5068 356.203 48.5068C359.828 48.5068 362.516 49.5381 364.266 51.6006C366.036 53.6423 366.932 56.736 366.953 60.8818V82.9443H365.266V60.8193C365.245 57.1943 364.505 54.5173 363.047 52.7881C361.588 51.0381 359.276 50.1631 356.109 50.1631C353.193 50.1631 350.661 51.2048 348.516 53.2881C346.391 55.3506 344.953 58.0173 344.203 61.2881V82.9443H342.516V34.9443H344.203V57.0068ZM403.422 82.9443C403.005 81.5068 402.797 79.4443 402.797 76.7568C401.463 78.9235 399.641 80.6006 397.328 81.7881C395.016 82.9756 392.401 83.5693 389.484 83.5693C386.359 83.5693 383.838 82.7256 381.922 81.0381C380.026 79.3298 379.078 77.111 379.078 74.3818C379.078 71.2777 380.474 68.7985 383.266 66.9443C386.078 65.0693 389.807 64.111 394.453 64.0693H402.797V59.1318C402.797 56.2985 401.901 54.1006 400.109 52.5381C398.338 50.9756 395.797 50.1943 392.484 50.1943C389.401 50.1943 386.828 50.986 384.766 52.5693C382.703 54.1527 381.672 56.111 381.672 58.4443L379.984 58.3818C379.984 55.6318 381.193 53.2985 383.609 51.3818C386.026 49.4652 388.984 48.5068 392.484 48.5068C396.13 48.5068 399.026 49.4235 401.172 51.2568C403.318 53.0693 404.422 55.6318 404.484 58.9443V75.1006C404.484 78.8089 404.776 81.3298 405.359 82.6631V82.9443H403.422ZM389.484 81.9131C392.651 81.9131 395.37 81.2048 397.641 79.7881C399.932 78.3714 401.651 76.3818 402.797 73.8193V65.7881H394.984C390.151 65.7881 386.453 66.7464 383.891 68.6631C381.807 70.2256 380.766 72.1735 380.766 74.5068C380.766 76.5693 381.588 78.3193 383.234 79.7568C384.88 81.1943 386.963 81.9131 389.484 81.9131ZM421.484 82.9443H419.797V49.1318H421.484V82.9443ZM418.922 38.5693C418.922 38.0902 419.088 37.6839 419.422 37.3506C419.755 36.9964 420.161 36.8193 420.641 36.8193C421.12 36.8193 421.526 36.9964 421.859 37.3506C422.213 37.6839 422.391 38.0902 422.391 38.5693C422.391 39.0485 422.213 39.4548 421.859 39.7881C421.526 40.1214 421.12 40.2881 420.641 40.2881C420.161 40.2881 419.755 40.1214 419.422 39.7881C419.088 39.4548 418.922 39.0485 418.922 38.5693ZM438.266 57.0068C439.37 54.3818 440.995 52.3089 443.141 50.7881C445.286 49.2673 447.661 48.5068 450.266 48.5068C453.891 48.5068 456.578 49.5381 458.328 51.6006C460.099 53.6423 460.995 56.736 461.016 60.8818V82.9443H459.328V60.8193C459.307 57.1943 458.568 54.5173 457.109 52.7881C455.651 51.0381 453.338 50.1631 450.172 50.1631C447.255 50.1631 444.724 51.2048 442.578 53.2881C440.453 55.3506 439.016 58.0173 438.266 61.2881V82.9443H436.578V49.1318H438.266V57.0068Z" fill="white"/>
</svg>
